<svg width="40" height="44" viewBox="0 0 40 44" fill="none" xmlns="http://www.w3.org/2000/svg">
<path d="M12.8 17.3L14.8 5.3C14.9 4.9 14.6 4.5 14.2 4.4L6.7 3.1C6.7 3.1 6.6 3.1 6.6 3.2L4.5 15.6L12.8 17.3Z" fill="#008575"/>
<path d="M4.3 17.3L0 42.5C0 42.5 0 42.6 0.1 42.6L7.6 44C8 44 8.3 43.7 8.4 43.3L12.6 18.7L4.3 17.3Z" fill="#008575"/>
<path d="M39.2 42.4L35.8 12.5L29.4 13.3L30 18.1L32.9 17.8L33.2 20L30.3 20.3L33 43.9L38.7 43.2C38.9 43.2 39.2 42.8 39.2 42.4Z" fill="#008575"/>
<path d="M14.7 33.7L26.6 33.9V32.3H14.7V33.7Z" fill="#008575"/>
<path d="M26.6 36.8V35.2H14.7V36.7L26.6 36.8Z" fill="#008575"/>
<path d="M26.6 43.9V38.4L14.7 38V43.9H26.6Z" fill="#008575"/>
<path d="M26.6 0V31H14.7L14.8 0.3L26.6 0Z" fill="#008575"/>
</svg>
